<svg xmlns="http://www.w3.org/2000/svg" viewBox="0 0 512 511.996"><defs><style>.a{fill:#a49bde;}.b{fill:#8e80ef;}.c{fill:#fc8059;}.d{fill:#ffd880;}.e{fill:#b5e5bc;}.f{fill:#cfdfe2;}.g{fill:#fff;}.h{fill:#c3e4ed;}.i{fill:#dcf3f9;}.j{fill:#4c4c4c;}</style></defs><g transform="translate(0 -0.001)"><path class="a" d="M86.071,441.452a18.9,18.9,0,0,1,4.213,15.326l-6.891,41.43a8.091,8.091,0,0,1-7.965,6.77,8.246,8.246,0,0,1-1.339-.111,8.1,8.1,0,0,1-6.645-9.323l6.891-41.431a2.7,2.7,0,0,0-2.658-3.144H32.452a2.7,2.7,0,0,0-2.66,3.144l6.891,41.431a8.085,8.085,0,1,1-15.948,2.664l-6.891-41.431a18.892,18.892,0,0,1,18.608-22.011H45.81V351.594a8.093,8.093,0,0,1,8.084-8.1H172.462a8.1,8.1,0,0,1,0,16.2H61.979v75.071h9.7A18.811,18.811,0,0,1,86.071,441.452Zm245.382,39.221H180.547a8.1,8.1,0,0,0,0,16.2h150.9a8.1,8.1,0,0,0,0-16.2Z"/><path class="b" d="M378.65,300.935,350.395,414.192a43.133,43.133,0,0,1-41.829,32.727H203.431A43.133,43.133,0,0,1,161.6,414.192L133.347,300.935a21.593,21.593,0,0,1,20.914-26.843H357.734A21.593,21.593,0,0,1,378.65,300.935Z"/><path class="a" d="M481.3,356.408a8.081,8.081,0,0,1-7.028,4.1H319.97A69.028,69.028,0,0,1,256,403.711h0a69.054,69.054,0,0,1-66.966-52.395l-5.872-23.538a43.186,43.186,0,0,1,41.829-53.686H342.233L324.717,344.3H460.055L385.263,218.39a42.827,42.827,0,0,1-21.473,5.746H148.212A43.161,43.161,0,0,1,105.1,180.93v-21.6C105.1,75.808,172.658,8.1,256,8.1h0c83.343,0,150.9,67.705,150.9,151.223v21.6a43.069,43.069,0,0,1-9.224,26.691l83.539,140.642A8.116,8.116,0,0,1,481.3,356.408Z"/><path class="b" d="M503.916,328.1a32.337,32.337,0,1,1-32.337-32.4A32.371,32.371,0,0,1,503.916,328.1ZM40.421,295.7a32.405,32.405,0,1,0,32.337,32.4A32.37,32.37,0,0,0,40.421,295.7Z"/><path class="a" d="M51.2,328.1a10.779,10.779,0,1,1-10.779-10.8A10.79,10.79,0,0,1,51.2,328.1Zm420.379-10.8a10.8,10.8,0,1,0,10.779,10.8A10.79,10.79,0,0,0,471.579,317.3Z"/><path class="c" d="M199.411,381.029v1.08a8.084,8.084,0,1,1-16.168,0v-1.08a8.084,8.084,0,1,1,16.168,0Z"/><path class="d" d="M231.747,381.029v1.08a8.084,8.084,0,1,1-16.168,0v-1.08a8.084,8.084,0,1,1,16.168,0Z"/><path class="e" d="M317.979,381.029v1.08a8.084,8.084,0,1,1-16.168,0v-1.08a8.084,8.084,0,1,1,16.168,0Z"/><path class="f" d="M212.884,349.7H191.326a10.779,10.779,0,0,1-10.779-10.779V317.276A10.779,10.779,0,0,1,191.326,306.5h21.558a10.779,10.779,0,0,1,10.779,10.779v21.648A10.778,10.778,0,0,1,212.884,349.7Z"/><path class="b" d="M158.989,121.519a53.9,53.9,0,1,1,53.895,54.008A53.952,53.952,0,0,1,158.989,121.519Z"/><path class="f" d="M180.547,121.519a32.337,32.337,0,1,1,32.337,32.4A32.371,32.371,0,0,1,180.547,121.519Z"/><path class="g" d="M212.884,121.519a16.168,16.168,0,1,1,16.168,16.2A16.186,16.186,0,0,1,212.884,121.519Z"/><path class="a" d="M427.65,41.321a113.3,113.3,0,1,1-160.059,0A113.586,113.586,0,0,1,427.65,41.321Z"/><path class="h" d="M423.074,121.519a75.453,75.453,0,1,1-75.453-75.611A75.532,75.532,0,0,1,423.074,121.519Z"/><path class="i" d="M392.807,60.962A75.77,75.77,0,0,1,418.7,96.121l-96.422,96.625A75.632,75.632,0,0,1,287.191,166.8ZM276.545,146.918a75.225,75.225,0,0,0,4.534,10.256L383.2,54.836a74.936,74.936,0,0,0-10.235-4.542Z"/><path class="g" d="M347.957,64.98a21.6,21.6,0,1,1-21.558,21.6A21.581,21.581,0,0,1,347.957,64.98Z"/><path class="j" d="M339.537,500.928a8.092,8.092,0,0,1-8.084,8.1H180.547a8.1,8.1,0,0,1,0-16.2h150.9A8.091,8.091,0,0,1,339.537,500.928ZM512,328.1A40.4,40.4,0,0,1,435.836,347H369.36c-.116,0-.234,0-.35,0H277.558a8.1,8.1,0,0,1,0-16.2h85.31l7.94-31.831a13.494,13.494,0,0,0-13.07-16.776H154.263a13.494,13.494,0,0,0-13.07,16.776l28.255,113.255a34.993,34.993,0,0,0,33.985,26.592H308.568a34.993,34.993,0,0,0,33.985-26.592l13.394-53.686a8.086,8.086,0,1,1,15.687,3.93L358.24,416.156a51.147,51.147,0,0,1-49.672,38.863H203.432a51.147,51.147,0,0,1-49.672-38.865l-16.51-66.182H76.164a40.579,40.579,0,0,1-27.659,20.79v71.024H60.033A18.893,18.893,0,0,1,78.641,463.8l-6.892,41.432A8.085,8.085,0,1,1,55.8,502.562l6.891-41.431a2.7,2.7,0,0,0-2.658-3.144H20.809a2.7,2.7,0,0,0-2.658,3.145l6.891,41.43a8.085,8.085,0,1,1-15.948,2.665L2.2,463.8A18.893,18.893,0,0,1,20.81,441.785H32.338V370.762a40.5,40.5,0,1,1,48.5-39.69c0,.909-.029,1.807-.088,2.7h52.455l-7.7-30.871a29.69,29.69,0,0,1,28.757-36.909H357.737A29.69,29.69,0,0,1,386.494,302.9l-6.961,27.9h51.714q-.088-1.341-.088-2.7a40.5,40.5,0,0,1,16.148-32.37l-40.478-68.148a121.588,121.588,0,0,1-109.2,4.653H148.211a51.312,51.312,0,0,1-51.2-51.308v-21.6C97.011,71.473,168.333,0,256,0a158.431,158.431,0,0,1,49.054,7.738A121.25,121.25,0,0,1,433.368,35.592c47.28,47.381,47.28,124.473,0,171.854a121.791,121.791,0,0,1-12.977,11.291l41.585,70.013A40.429,40.429,0,0,1,512,328.1ZM271.391,216.034a122.73,122.73,0,0,1-9.517-8.588,120.9,120.9,0,0,1-31.2-53.6,40.514,40.514,0,1,1,2.132-71.6,122.039,122.039,0,0,1,50.1-63.5A143.114,143.114,0,0,0,256,16.2c-78.752,0-142.821,64.205-142.821,143.122v21.6a35.107,35.107,0,0,0,35.032,35.1h123.18Zm-45.033-94.515a123.027,123.027,0,0,1,2.1-22.684,23.929,23.929,0,0,0-15.57-5.67,24.3,24.3,0,1,0,14.441,43.822A123.369,123.369,0,0,1,226.358,121.519Zm195.575,74.47a105.47,105.47,0,0,0,0-148.94,105.173,105.173,0,0,0-113.081-23.48,8.213,8.213,0,0,1-1.247.5A105.264,105.264,0,1,0,421.933,195.989ZM64.674,331.072a24.253,24.253,0,1,0-24.253,24.3A24.306,24.306,0,0,0,64.674,331.072ZM495.832,328.1a24.244,24.244,0,0,0-34.042-22.235c-.075.036-.152.07-.229.1a24.339,24.339,0,0,0-12.9,30.084c.036.1.069.192.1.288a24.247,24.247,0,0,0,47.072-8.239ZM431.158,121.519a83.624,83.624,0,1,1-24.467-59.194A83.256,83.256,0,0,1,431.158,121.519Zm-16.169,0a67.443,67.443,0,1,0-19.733,47.736A67.131,67.131,0,0,0,414.989,121.519ZM212.884,298.4a18.9,18.9,0,0,1,18.863,18.9v21.6a18.905,18.905,0,0,1-18.863,18.9H191.326a18.9,18.9,0,0,1-18.863-18.9V317.3a18.905,18.905,0,0,1,18.863-18.9h21.558Zm0,16.2H191.326a2.7,2.7,0,0,0-2.7,2.7v21.6a2.7,2.7,0,0,0,2.7,2.7h21.558a2.7,2.7,0,0,0,2.7-2.7V317.3A2.7,2.7,0,0,0,212.884,314.6Z"/></g></svg>